<?xml version="1.0" encoding="utf-8" ?>
<svg baseProfile="tiny" height="200px" version="1.2" width="200px" xmlns="http://www.w3.org/2000/svg" xmlns:ev="http://www.w3.org/2001/xml-events" xmlns:xlink="http://www.w3.org/1999/xlink"><defs /><path d="M 10 10 H 190 V 60 H 10 Z" fill="none" stroke="black" stroke-width="2" /><rect fill="grey" height="10" stroke="black" stroke-width="0.5" width="20" x="20" y="20" /><rect fill="grey" height="10" stroke="black" stroke-width="0.5" width="20" x="20" y="40" /><rect fill="grey" height="10" stroke="black" stroke-width="0.5" width="20" x="60" y="20" /><rect fill="grey" height="10" stroke="black" stroke-width="0.5" width="20" x="60" y="40" /><rect fill="grey" height="10" stroke="black" stroke-width="0.5" width="20" x="100" y="20" /><rect fill="grey" height="10" stroke="black" stroke-width="0.5" width="20" x="100" y="40" /><rect fill="grey" height="10" stroke="black" stroke-width="0.5" width="20" x="140" y="20" /><rect fill="grey" height="10" stroke="black" stroke-width="0.5" width="20" x="140" y="40" /><text fill="black" font-family="Arial" font-size="15px" x="10" y="100">Typing Speed: 94 WPM</text></svg>a<svg xmlns="http://www.w3.org/2000/svg" viewBox="0 0 100 100" width="100" height="100">
  <!-- Circle representing a soccer ball -->
  <circle cx="20" cy="20" r="10" stroke="black" stroke-width="2" fill="white"/>
  <line x1="15" y1="15" x2="25" y2="25" stroke="black" stroke-width="1"/>
  <line x1="25" y1="15" x2="15" y2="25" stroke="black" stroke-width="1"/>

  <!-- A musical note -->
  <path d="M 50 30 C 50 20, 55 20, 55 30 V 60 Q 55 65, 52 65 T 50 60 V 30 Z" fill="black"/>

  <!-- A book icon representing clubs -->
  <rect x="70" y="30" width="10" height="15" stroke="black" stroke-width="2" fill="lightblue"/>
  <line x1="70" y1="37" x2="80" y2="37" stroke="black" stroke-width="1"/>
  <line x1="70" y1="42" x2="80" y2="42" stroke="black" stroke-width="1"/>
  <line x1="70" y1="47" x2="80" y2="47" stroke="black" stroke-width="1"/>
</svg>
